<svg width="500" height="304" viewBox="0 0 500 304" fill="none" xmlns="http://www.w3.org/2000/svg">
<path d="M7.94932 3.3653C7.59879 1.18415 5.54646 -0.299857 3.3653 0.0506759C1.18415 0.401209 -0.299857 2.45354 0.0506759 4.6347L7.94932 3.3653ZM84 138L86.3392 134.755L86.3392 134.755L84 138ZM375 195L376.506 191.294L376.506 191.294L375 195ZM492.109 302.122C493.281 303.995 495.749 304.563 497.622 303.391C499.495 302.219 500.063 299.751 498.891 297.878L492.109 302.122ZM0.243416 5.73462C0.641638 7.90757 2.72599 9.34627 4.89894 8.94805C7.07189 8.54983 8.51059 6.46548 8.11237 4.29253L0.243416 5.73462ZM12.9681 23.9939C12.3413 21.8756 10.1159 20.6664 7.99752 21.2932C5.87917 21.92 4.67003 24.1454 5.29683 26.2638L12.9681 23.9939ZM5.89572 28.258C6.53969 30.3712 8.77482 31.5622 10.888 30.9182C13.0012 30.2743 14.1922 28.0391 13.5483 25.9259L5.89572 28.258ZM20.2781 45.2045C19.4676 43.1495 17.1445 42.1406 15.0895 42.9511C13.0344 43.7617 12.0255 46.0847 12.836 48.1398L20.2781 45.2045ZM13.6207 50.106C14.4478 52.1544 16.7788 53.1446 18.8273 52.3175C20.8758 51.4904 21.8659 49.1593 21.0389 47.1109L13.6207 50.106ZM29.4382 65.6875C28.4446 63.7144 26.0396 62.9204 24.0665 63.914C22.0935 64.9077 21.2995 67.3126 22.2931 69.2857L29.4382 65.6875ZM23.2561 71.1774C24.2668 73.1417 26.6786 73.9148 28.643 72.904C30.6073 71.8933 31.3803 69.4815 30.3696 67.5171L23.2561 71.1774ZM40.4812 85.1777C39.2959 83.3135 36.8238 82.763 34.9596 83.9482C33.0953 85.1334 32.5448 87.6055 33.73 89.4698L40.4812 85.1777ZM34.87 91.2441C36.0731 93.0969 38.5504 93.6236 40.4032 92.4205C42.256 91.2174 42.7827 88.7401 41.5796 86.8873L34.87 91.2441ZM53.4846 103.351C52.0988 101.63 49.5807 101.359 47.8603 102.745C46.1398 104.13 45.8685 106.649 47.2543 108.369L53.4846 103.351ZM48.596 110.016C50.0003 111.722 52.5212 111.966 54.2265 110.561C55.9318 109.157 56.1758 106.636 54.7715 104.931L48.596 110.016ZM68.5084 119.824C66.9191 118.289 64.3868 118.334 62.8525 119.923C61.3181 121.513 61.3627 124.045 62.9521 125.579L68.5084 119.824ZM64.4895 127.046C66.0971 128.561 68.6287 128.486 70.1438 126.878C71.659 125.271 71.584 122.739 69.9763 121.224L64.4895 127.046ZM85.5158 134.158C83.7322 132.854 81.2296 133.243 79.9262 135.027C78.6227 136.811 79.012 139.313 80.7956 140.617L85.5158 134.158ZM82.4837 141.835C84.2828 143.117 86.7805 142.698 88.0626 140.899C89.3448 139.1 88.9258 136.602 87.1268 135.32L82.4837 141.835ZM103.235 145.511C101.304 144.437 98.8688 145.131 97.7947 147.061C96.7205 148.992 97.4147 151.427 99.3451 152.501L103.235 145.511ZM101.11 153.47C103.052 154.522 105.48 153.799 106.532 151.857C107.583 149.914 106.861 147.487 104.919 146.435L101.11 153.47ZM122.161 154.526C120.111 153.703 117.782 154.698 116.959 156.749C116.136 158.799 117.132 161.128 119.182 161.95L122.161 154.526ZM121.039 162.684C123.099 163.483 125.416 162.462 126.216 160.402C127.015 158.343 125.994 156.025 123.935 155.226L121.039 162.684ZM142.065 161.148C139.932 160.574 137.737 161.837 137.162 163.97C136.588 166.103 137.851 168.298 139.984 168.873L142.065 161.148ZM141.905 169.38C144.044 169.933 146.226 168.648 146.78 166.51C147.333 164.371 146.048 162.188 143.909 161.635L141.905 169.38ZM162.656 165.563C160.476 165.204 158.418 166.681 158.06 168.86C157.701 171.04 159.177 173.098 161.357 173.457L162.656 165.563ZM163.316 173.771C165.498 174.112 167.544 172.62 167.886 170.437C168.227 168.254 166.734 166.208 164.552 165.867L163.316 173.771ZM183.658 168.163C181.458 167.969 179.517 169.596 179.323 171.797C179.13 173.998 180.757 175.938 182.958 176.132L183.658 168.163ZM184.927 176.3C187.128 176.481 189.06 174.843 189.241 172.641C189.423 170.44 187.785 168.508 185.583 168.327L184.927 176.3ZM204.896 169.461C202.688 169.375 200.829 171.095 200.744 173.303C200.658 175.51 202.378 177.369 204.585 177.455L204.896 169.461ZM206.545 177.528C208.753 177.607 210.606 175.881 210.685 173.673C210.764 171.465 209.038 169.612 206.83 169.533L206.545 177.528ZM226.262 169.998C224.053 169.964 222.235 171.726 222.2 173.935C222.166 176.144 223.929 177.963 226.137 177.997L226.262 169.998ZM228.093 178.027C230.302 178.059 232.119 176.295 232.152 174.086C232.184 171.877 230.42 170.06 228.211 170.027L228.093 178.027ZM247.736 170.297C245.527 170.262 243.708 172.024 243.672 174.233C243.636 176.441 245.398 178.261 247.607 178.296L247.736 170.297ZM249.559 178.329C251.768 178.367 253.589 176.607 253.627 174.398C253.665 172.19 251.906 170.368 249.697 170.33L249.559 178.329ZM269.292 170.847C267.084 170.762 265.226 172.483 265.141 174.691C265.057 176.898 266.778 178.756 268.985 178.841L269.292 170.847ZM270.919 178.918C273.127 179.009 274.99 177.294 275.081 175.087C275.173 172.879 273.457 171.016 271.25 170.925L270.919 178.918ZM290.887 172.095C288.685 171.918 286.757 173.559 286.58 175.761C286.403 177.963 288.044 179.892 290.246 180.069L290.887 172.095ZM292.172 180.228C294.374 180.416 296.31 178.783 296.497 176.582C296.684 174.381 295.052 172.444 292.851 172.257L292.172 180.228ZM312.462 174.443C310.274 174.136 308.252 175.661 307.946 177.849C307.639 180.037 309.164 182.059 311.352 182.366L312.462 174.443ZM313.264 182.639C315.45 182.959 317.481 181.447 317.801 179.261C318.121 177.075 316.608 175.044 314.423 174.724L313.264 182.639ZM333.891 178.226C331.731 177.761 329.603 179.134 329.138 181.294C328.673 183.453 330.046 185.581 332.206 186.046L333.891 178.226ZM334.094 186.46C336.251 186.941 338.388 185.583 338.869 183.427C339.35 181.271 337.992 179.133 335.836 178.652L334.094 186.46ZM354.997 183.68C352.883 183.038 350.649 184.232 350.008 186.345C349.366 188.459 350.559 190.693 352.673 191.335L354.997 183.68ZM354.512 191.901C356.621 192.559 358.864 191.384 359.522 189.275C360.18 187.166 359.005 184.923 356.896 184.265L354.512 191.901ZM375.577 190.919C373.527 190.095 371.197 191.089 370.374 193.139C369.55 195.189 370.544 197.518 372.594 198.342L375.577 190.919ZM374.449 199.097C376.49 199.941 378.829 198.969 379.673 196.928C380.517 194.886 379.546 192.547 377.504 191.703L374.449 199.097ZM396.861 200.98C394.922 199.922 392.492 200.636 391.434 202.575C390.376 204.514 391.09 206.944 393.029 208.002L396.861 200.98ZM394.841 209.003C396.769 210.081 399.206 209.391 400.284 207.463C401.362 205.534 400.672 203.097 398.743 202.02L394.841 209.003ZM416.919 213.336C415.098 212.085 412.608 212.547 411.357 214.367C410.106 216.188 410.567 218.678 412.388 219.929L416.919 213.336ZM414.092 221.111C415.902 222.378 418.396 221.938 419.663 220.128C420.929 218.318 420.489 215.824 418.679 214.557L414.092 221.111ZM435.669 227.511C433.966 226.104 431.444 226.344 430.038 228.047C428.631 229.751 428.871 232.272 430.574 233.679L435.669 227.511ZM432.164 235.002C433.856 236.421 436.379 236.2 437.799 234.507C439.218 232.815 438.997 230.292 437.304 228.872L432.164 235.002ZM453.143 243.143C451.553 241.609 449.021 241.654 447.487 243.243C445.953 244.833 445.998 247.365 447.587 248.899L453.143 243.143ZM449.089 250.358C450.668 251.903 453.201 251.875 454.745 250.295C456.29 248.716 456.262 246.183 454.682 244.639L449.089 250.358ZM469.413 259.997C467.935 258.355 465.405 258.224 463.764 259.702C462.123 261.181 461.991 263.71 463.47 265.351L469.413 259.997ZM464.871 266.917C466.34 268.567 468.868 268.715 470.519 267.246C472.169 265.777 472.316 263.249 470.848 261.599L464.871 266.917ZM484.514 277.934C483.15 276.197 480.635 275.895 478.898 277.26C477.161 278.625 476.859 281.139 478.223 282.876L484.514 277.934ZM479.491 284.5C480.845 286.246 483.357 286.564 485.103 285.21C486.849 283.856 487.167 281.344 485.813 279.598L479.491 284.5ZM498.289 296.94C497.085 295.088 494.607 294.563 492.755 295.767C490.903 296.972 490.378 299.449 491.582 301.301L498.289 296.94ZM4 4C0.0506759 4.6347 0.0506891 4.63478 0.0507025 4.63486C0.0507073 4.63489 0.0507209 4.63498 0.0507305 4.63504C0.0507495 4.63515 0.0507694 4.63528 0.0507902 4.63541C0.0508318 4.63567 0.0508768 4.63595 0.0509253 4.63625C0.0510222 4.63685 0.051133 4.63754 0.0512577 4.63831C0.051507 4.63985 0.0518118 4.64174 0.0521724 4.64396C0.0528935 4.64841 0.0538377 4.65422 0.0550075 4.66138C0.057347 4.6757 0.0605887 4.69541 0.0647519 4.72047C0.0730782 4.77058 0.085091 4.84205 0.100945 4.93438C0.132653 5.11903 0.17973 5.38711 0.243416 5.73462L8.11237 4.29253C8.05418 3.97501 8.01231 3.73631 7.98554 3.58043C7.97215 3.50249 7.96255 3.44525 7.95656 3.40923C7.95357 3.39122 7.95148 3.37851 7.95028 3.37117C7.94968 3.3675 7.9493 3.36517 7.94915 3.36419C7.94907 3.3637 7.94904 3.36355 7.94907 3.36373C7.94909 3.36382 7.94911 3.364 7.94916 3.36426C7.94918 3.3644 7.9492 3.36455 7.94923 3.36472C7.94924 3.36481 7.94926 3.3649 7.94927 3.365C7.94928 3.36505 7.94929 3.36512 7.9493 3.36515C7.94931 3.36522 7.94932 3.3653 4 4ZM5.29683 26.2638C5.49014 26.9171 5.68972 27.582 5.89572 28.258L13.5483 25.9259C13.3487 25.2709 13.1553 24.6268 12.9681 23.9939L5.29683 26.2638ZM12.836 48.1398C13.0929 48.7909 13.3544 49.4464 13.6207 50.106L21.0389 47.1109C20.7807 46.4714 20.5271 45.8359 20.2781 45.2045L12.836 48.1398ZM22.2931 69.2857C22.6099 69.9147 22.9308 70.5454 23.2561 71.1774L30.3696 67.5171C30.0551 66.9059 29.7446 66.296 29.4382 65.6875L22.2931 69.2857ZM33.73 89.4698C34.1061 90.0613 34.486 90.6528 34.87 91.2441L41.5796 86.8873C41.2097 86.3176 40.8436 85.7478 40.4812 85.1777L33.73 89.4698ZM47.2543 108.369C47.6975 108.919 48.1447 109.469 48.596 110.016L54.7715 104.931C54.3388 104.405 53.9098 103.879 53.4846 103.351L47.2543 108.369ZM62.9521 125.579C63.4606 126.07 63.973 126.559 64.4895 127.046L69.9763 121.224C69.4833 120.759 68.9941 120.292 68.5084 119.824L62.9521 125.579ZM80.7956 140.617C81.083 140.827 81.3714 141.036 81.6608 141.245L86.3392 134.755C86.0638 134.557 85.7894 134.358 85.5158 134.158L80.7956 140.617ZM81.6608 141.245C81.935 141.442 82.2094 141.639 82.4837 141.835L87.1268 135.32C86.8642 135.133 86.6016 134.944 86.3392 134.755L81.6608 141.245ZM99.3451 152.501C99.933 152.828 100.521 153.151 101.11 153.47L104.919 146.435C104.357 146.131 103.796 145.823 103.235 145.511L99.3451 152.501ZM119.182 161.95C119.801 162.199 120.42 162.443 121.039 162.684L123.935 155.226C123.343 154.996 122.752 154.763 122.161 154.526L119.182 161.95ZM139.984 168.873C140.624 169.045 141.264 169.214 141.905 169.38L143.909 161.635C143.294 161.476 142.679 161.314 142.065 161.148L139.984 168.873ZM161.357 173.457C162.01 173.564 162.663 173.669 163.316 173.771L164.552 165.867C163.919 165.768 163.287 165.667 162.656 165.563L161.357 173.457ZM182.958 176.132C183.614 176.19 184.27 176.245 184.927 176.3L185.583 168.327C184.941 168.274 184.299 168.219 183.658 168.163L182.958 176.132ZM204.585 177.455C205.238 177.48 205.891 177.504 206.545 177.528L206.83 169.533C206.185 169.51 205.54 169.486 204.896 169.461L204.585 177.455ZM226.137 177.997C226.789 178.007 227.441 178.017 228.093 178.027L228.211 170.027C227.561 170.018 226.911 170.008 226.262 169.998L226.137 177.997ZM247.607 178.296C248.257 178.307 248.908 178.318 249.559 178.329L249.697 170.33C249.043 170.319 248.389 170.308 247.736 170.297L247.607 178.296ZM268.985 178.841C269.63 178.866 270.274 178.891 270.919 178.918L271.25 170.925C270.597 170.898 269.944 170.872 269.292 170.847L268.985 178.841ZM290.246 180.069C290.888 180.12 291.53 180.174 292.172 180.228L292.851 172.257C292.196 172.201 291.541 172.147 290.887 172.095L290.246 180.069ZM311.352 182.366C311.989 182.455 312.626 182.546 313.264 182.639L314.423 174.724C313.769 174.628 313.115 174.534 312.462 174.443L311.352 182.366ZM332.206 186.046C332.835 186.182 333.465 186.32 334.094 186.46L335.836 178.652C335.187 178.507 334.539 178.365 333.891 178.226L332.206 186.046ZM352.673 191.335C353.286 191.521 353.899 191.71 354.512 191.901L356.896 184.265C356.263 184.067 355.63 183.872 354.997 183.68L352.673 191.335ZM372.594 198.342C372.894 198.462 373.194 198.584 373.494 198.706L376.506 191.294C376.196 191.168 375.886 191.043 375.577 190.919L372.594 198.342ZM373.494 198.706C373.812 198.835 374.131 198.966 374.449 199.097L377.504 191.703C377.172 191.566 376.839 191.43 376.506 191.294L373.494 198.706ZM393.029 208.002C393.635 208.333 394.239 208.667 394.841 209.003L398.743 202.02C398.118 201.67 397.491 201.324 396.861 200.98L393.029 208.002ZM412.388 219.929C412.958 220.322 413.526 220.716 414.092 221.111L418.679 214.557C418.095 214.149 417.508 213.742 416.919 213.336L412.388 219.929ZM430.574 233.679C431.107 234.119 431.637 234.56 432.164 235.002L437.304 228.872C436.762 228.418 436.217 227.964 435.669 227.511L430.574 233.679ZM447.587 248.899C448.092 249.386 448.592 249.872 449.089 250.358L454.682 244.639C454.173 244.141 453.66 243.642 453.143 243.143L447.587 248.899ZM463.47 265.351C463.942 265.876 464.41 266.398 464.871 266.917L470.848 261.599C470.375 261.068 469.897 260.533 469.413 259.997L463.47 265.351ZM478.223 282.876C478.655 283.426 479.078 283.968 479.491 284.5L485.813 279.598C485.39 279.052 484.957 278.498 484.514 277.934L478.223 282.876ZM491.582 301.301C491.763 301.579 491.898 301.789 491.986 301.927C492.03 301.996 492.062 302.047 492.083 302.08C492.093 302.096 492.1 302.108 492.105 302.115C492.107 302.119 492.109 302.121 492.109 302.122C492.11 302.123 492.11 302.123 492.11 302.123C492.11 302.123 492.11 302.123 492.11 302.123C492.11 302.123 492.11 302.123 492.11 302.122C492.11 302.122 492.109 302.122 492.109 302.122C492.109 302.122 492.109 302.122 492.109 302.122C492.109 302.122 492.109 302.122 495.5 300C498.891 297.878 498.891 297.878 498.891 297.878C498.891 297.878 498.891 297.878 498.891 297.878C498.891 297.878 498.89 297.878 498.89 297.877C498.89 297.877 498.89 297.877 498.89 297.877C498.89 297.876 498.889 297.876 498.889 297.875C498.888 297.874 498.887 297.873 498.886 297.871C498.884 297.867 498.881 297.863 498.877 297.857C498.87 297.845 498.86 297.828 498.846 297.807C498.82 297.765 498.781 297.704 498.731 297.626C498.63 297.468 498.483 297.238 498.289 296.94L491.582 301.301Z" fill="#EEEEEE"/>
</svg>
