<svg width="488" height="298" viewBox="0 0 488 298" fill="none" xmlns="http://www.w3.org/2000/svg">
<path d="M7.94964 294.633C7.6002 296.814 5.54861 298.299 3.36728 297.95C1.18595 297.6 -0.299083 295.549 0.0503589 293.367L7.94964 294.633ZM82.1282 162.716L84.4723 165.957L84.4723 165.957L82.1282 162.716ZM366.319 106.872L367.83 110.575L366.319 106.872ZM480.606 1.88282C481.776 0.00850538 484.243 -0.563032 486.117 0.606256C487.992 1.77554 488.563 4.24287 487.394 6.11719L480.606 1.88282ZM0.238719 292.289C0.635695 290.116 2.71922 288.676 4.8924 289.073C7.06557 289.47 8.50547 291.553 8.1085 293.726L0.238719 292.289ZM12.8445 274.446C12.2197 276.565 9.99546 277.776 7.87652 277.151C5.75759 276.527 4.54637 274.302 5.17119 272.183L12.8445 274.446ZM5.75591 270.23C6.39787 268.116 8.63185 266.923 10.7457 267.565C12.8595 268.207 14.0527 270.441 13.4107 272.554L5.75591 270.23ZM19.9758 253.682C19.1677 255.738 16.8459 256.75 14.7898 255.942C12.7338 255.134 11.7221 252.812 12.5302 250.756L19.9758 253.682ZM13.2964 248.829C14.1209 246.78 16.4508 245.787 18.5003 246.611C20.5498 247.436 21.5428 249.766 20.7182 251.815L13.2964 248.829ZM28.9129 233.627C27.9221 235.601 25.5183 236.399 23.5438 235.408C21.5693 234.417 20.7718 232.013 21.7626 230.039L28.9129 233.627ZM22.7031 228.185C23.711 226.219 26.1217 225.442 28.0875 226.45C30.0533 227.458 30.8299 229.869 29.822 231.835L22.7031 228.185ZM39.6893 214.538C38.5071 216.405 36.0359 216.959 34.1697 215.777C32.3035 214.595 31.749 212.124 32.9312 210.257L39.6893 214.538ZM34.0446 208.518C35.2446 206.664 37.721 206.133 39.5758 207.333C41.4306 208.533 41.9613 211.009 40.7613 212.864L34.0446 208.518ZM52.3822 196.736C50.9994 198.459 48.4818 198.734 46.7589 197.352C45.0361 195.969 44.7603 193.451 46.1431 191.728L52.3822 196.736ZM47.454 190.113C48.8554 188.405 51.3758 188.157 53.0836 189.558C54.7914 190.96 55.0398 193.48 53.6384 195.188L47.454 190.113ZM67.0527 180.593C65.466 182.131 62.9337 182.09 61.3966 180.504C59.8595 178.917 59.8997 176.385 61.4864 174.848L67.0527 180.593ZM62.9897 173.409C64.5947 171.891 67.1264 171.961 68.6443 173.566C70.1623 175.171 70.0916 177.703 68.4866 179.221L62.9897 173.409ZM83.6678 166.543C81.8862 167.849 79.383 167.464 78.0768 165.682C76.7706 163.901 77.156 161.398 78.9377 160.091L83.6678 166.543ZM80.6493 158.853C82.4469 157.569 84.9452 157.985 86.2293 159.783C87.5134 161.58 87.0971 164.079 85.2995 165.363L80.6493 158.853ZM102.277 154.701C100.338 155.759 97.9082 155.046 96.8493 153.107C95.7905 151.168 96.5039 148.738 98.4427 147.679L102.277 154.701ZM100.301 146.68C102.253 145.645 104.674 146.388 105.708 148.34C106.743 150.292 105.999 152.713 104.048 153.748L100.301 146.68ZM122.278 145.485C120.214 146.272 117.902 145.237 117.116 143.172C116.329 141.108 117.364 138.797 119.428 138.01L122.278 145.485ZM121.386 137.277C123.46 136.515 125.758 137.578 126.521 139.652C127.283 141.725 126.22 144.024 124.146 144.786L121.386 137.277ZM143.358 138.959C141.212 139.483 139.048 138.168 138.524 136.021C138 133.875 139.315 131.711 141.462 131.187L143.358 138.959ZM143.5 130.701C145.651 130.2 147.802 131.537 148.303 133.689C148.805 135.84 147.467 137.991 145.316 138.492L143.5 130.701ZM165.143 134.854C162.955 135.158 160.935 133.63 160.631 131.442C160.328 129.254 161.855 127.234 164.044 126.93L165.143 134.854ZM166.108 126.652C168.299 126.365 170.307 127.908 170.593 130.099C170.88 132.289 169.337 134.297 167.146 134.584L166.108 126.652ZM187.325 132.641C185.12 132.787 183.215 131.119 183.069 128.914C182.922 126.71 184.591 124.805 186.795 124.658L187.325 132.641ZM188.866 124.526C191.071 124.391 192.968 126.069 193.103 128.274C193.239 130.479 191.561 132.376 189.356 132.511L188.866 124.526ZM209.727 131.673C207.518 131.728 205.683 129.983 205.627 127.775C205.572 125.566 207.317 123.731 209.525 123.675L209.727 131.673ZM211.584 123.626C213.793 123.575 215.624 125.324 215.675 127.533C215.726 129.741 213.976 131.573 211.768 131.624L211.584 123.626ZM232.259 131.293C230.05 131.322 228.236 129.555 228.207 127.346C228.179 125.137 229.946 123.323 232.155 123.294L232.259 131.293ZM234.211 123.267C236.42 123.238 238.234 125.004 238.264 127.213C238.293 129.422 236.526 131.237 234.317 131.266L234.211 123.267ZM254.901 130.884C252.692 130.944 250.853 129.203 250.793 126.994C250.733 124.786 252.474 122.947 254.682 122.887L254.901 130.884ZM256.722 122.828C258.93 122.762 260.774 124.499 260.839 126.707C260.905 128.915 259.169 130.759 256.961 130.825L256.722 122.828ZM277.613 129.872C275.409 130.017 273.505 128.347 273.36 126.142C273.216 123.938 274.886 122.034 277.09 121.89L277.613 129.872ZM279.125 121.752C281.329 121.597 283.24 123.259 283.395 125.462C283.549 127.666 281.888 129.578 279.684 129.732L279.125 121.752ZM300.339 127.745C298.147 128.02 296.147 126.465 295.873 124.273C295.599 122.081 297.154 120.081 299.346 119.807L300.339 127.745ZM301.351 119.55C303.541 119.262 305.55 120.804 305.838 122.995C306.126 125.185 304.584 127.194 302.393 127.482L301.351 119.55ZM322.916 124.072C320.751 124.512 318.639 123.114 318.199 120.949C317.759 118.784 319.157 116.673 321.322 116.232L322.916 124.072ZM323.304 115.822C325.465 115.365 327.587 116.747 328.044 118.909C328.5 121.07 327.118 123.192 324.957 123.649L323.304 115.822ZM345.168 118.534C343.05 119.163 340.824 117.956 340.195 115.839C339.566 113.721 340.772 111.494 342.89 110.865L345.168 118.534ZM344.835 110.279C346.947 109.632 349.184 110.82 349.831 112.932C350.478 115.044 349.29 117.281 347.178 117.928L344.835 110.279ZM366.852 110.972C364.803 111.797 362.472 110.805 361.647 108.756C360.822 106.706 361.814 104.376 363.863 103.551L366.852 110.972ZM365.742 102.784C367.783 101.938 370.123 102.907 370.969 104.947C371.815 106.988 370.846 109.328 368.806 110.174L365.742 102.784ZM387.734 101.073C385.797 102.134 383.366 101.423 382.305 99.4856C381.244 97.5479 381.954 95.117 383.892 94.056L387.734 101.073ZM385.662 93.0752C387.589 91.9948 390.027 92.681 391.107 94.6079C392.187 96.5348 391.501 98.9727 389.574 100.053L385.662 93.0752ZM407.34 88.9536C405.521 90.2078 403.03 89.7502 401.776 87.9316C400.522 86.113 400.979 83.622 402.798 82.3679L407.34 88.9536ZM404.462 81.2099C406.27 79.9401 408.764 80.3763 410.034 82.1841C411.304 83.9918 410.868 86.4867 409.06 87.7564L404.462 81.2099ZM425.66 75.0561C423.959 76.4659 421.437 76.2301 420.028 74.5293C418.618 72.8285 418.854 70.3068 420.554 68.897L425.66 75.0561ZM422.106 67.6008C423.797 66.1784 426.32 66.3956 427.742 68.0859C429.165 69.7762 428.948 72.2996 427.257 73.7219L422.106 67.6008ZM442.728 59.7345C441.141 61.2714 438.609 61.2308 437.072 59.6438C435.535 58.0569 435.576 55.5246 437.163 53.9877L442.728 59.7345ZM438.628 52.5592C440.205 51.0119 442.737 51.0357 444.285 52.6124C445.832 54.1891 445.808 56.7216 444.232 58.269L438.628 52.5592ZM458.616 43.2217C457.14 44.8654 454.611 45.0014 452.967 43.5254C451.323 42.0495 451.187 39.5205 452.663 37.8767L458.616 43.2217ZM454.032 36.3435C455.497 34.6907 458.026 34.5391 459.678 36.0049C461.331 37.4707 461.483 39.9988 460.017 41.6516L454.032 36.3435ZM473.359 25.6502C471.997 27.3896 469.483 27.6956 467.744 26.3337C466.004 24.9718 465.698 22.4577 467.06 20.7183L473.359 25.6502ZM468.297 19.1281C469.648 17.3802 472.161 17.0584 473.908 18.4094C475.656 19.7604 475.978 22.2725 474.627 24.0204L468.297 19.1281ZM486.806 7.0364C485.604 8.89018 483.127 9.41891 481.274 8.21733C479.42 7.01576 478.891 4.53891 480.093 2.68512L486.806 7.0364ZM4 294C0.0503589 293.367 0.0503721 293.367 0.0503854 293.367C0.0503901 293.367 0.0504037 293.367 0.0504131 293.367C0.050432 293.367 0.0504518 293.367 0.0504724 293.367C0.0505135 293.366 0.0505581 293.366 0.050606 293.366C0.0507019 293.365 0.0508112 293.364 0.0509341 293.364C0.0511799 293.362 0.0514798 293.36 0.0518341 293.358C0.0525429 293.354 0.0534693 293.348 0.054616 293.341C0.0569092 293.327 0.060083 293.308 0.0641564 293.283C0.0723029 293.234 0.0840478 293.164 0.0995421 293.073C0.13053 292.892 0.176519 292.629 0.238719 292.289L8.1085 293.726C8.05176 294.037 8.01094 294.27 7.98486 294.423C7.97182 294.499 7.96246 294.555 7.95664 294.59C7.95373 294.608 7.95171 294.62 7.95055 294.627C7.94997 294.631 7.9496 294.633 7.94945 294.634C7.94938 294.634 7.94936 294.635 7.94939 294.634C7.9494 294.634 7.94943 294.634 7.94947 294.634C7.9495 294.634 7.94952 294.633 7.94955 294.633C7.94956 294.633 7.94958 294.633 7.94959 294.633C7.9496 294.633 7.94961 294.633 7.94962 294.633C7.94963 294.633 7.94964 294.633 4 294ZM5.17119 272.183C5.35993 271.543 5.55479 270.892 5.75591 270.23L13.4107 272.554C13.2159 273.196 13.0272 273.826 12.8445 274.446L5.17119 272.183ZM12.5302 250.756C12.781 250.118 13.0363 249.475 13.2964 248.829L20.7182 251.815C20.4662 252.441 20.2188 253.064 19.9758 253.682L12.5302 250.756ZM21.7626 230.039C22.072 229.422 22.3855 228.804 22.7031 228.185L29.822 231.835C29.515 232.433 29.212 233.031 28.9129 233.627L21.7626 230.039ZM32.9312 210.257C33.2984 209.678 33.6695 209.098 34.0446 208.518L40.7613 212.864C40.4003 213.422 40.043 213.98 39.6893 214.538L32.9312 210.257ZM46.1431 191.728C46.5762 191.189 47.0131 190.65 47.454 190.113L53.6384 195.188C53.216 195.702 52.7973 196.219 52.3822 196.736L46.1431 191.728ZM61.4864 174.848C61.9836 174.366 62.4847 173.886 62.9897 173.409L68.4866 179.221C68.005 179.676 67.5271 180.134 67.0527 180.593L61.4864 174.848ZM78.9377 160.091C79.2188 159.885 79.501 159.68 79.7841 159.475L84.4723 165.957C84.2032 166.152 83.9351 166.347 83.6678 166.543L78.9377 160.091ZM79.7841 159.475C80.0724 159.267 80.3608 159.059 80.6493 158.853L85.2995 165.363C85.0237 165.56 84.7479 165.758 84.4723 165.957L79.7841 159.475ZM98.4427 147.679C99.0616 147.341 99.6809 147.008 100.301 146.68L104.048 153.748C103.457 154.061 102.867 154.378 102.277 154.701L98.4427 147.679ZM119.428 138.01C120.081 137.761 120.733 137.517 121.386 137.277L124.146 144.786C123.523 145.015 122.9 145.248 122.278 145.485L119.428 138.01ZM141.462 131.187C142.141 131.022 142.82 130.86 143.5 130.701L145.316 138.492C144.662 138.644 144.01 138.8 143.358 138.959L141.462 131.187ZM164.044 126.93C164.732 126.834 165.42 126.742 166.108 126.652L167.146 134.584C166.478 134.671 165.81 134.761 165.143 134.854L164.044 126.93ZM186.795 124.658C187.485 124.613 188.175 124.569 188.866 124.526L189.356 132.511C188.678 132.553 188.001 132.596 187.325 132.641L186.795 124.658ZM209.525 123.675C210.211 123.658 210.897 123.641 211.584 123.626L211.768 131.624C211.087 131.639 210.407 131.655 209.727 131.673L209.525 123.675ZM232.155 123.294C232.84 123.285 233.525 123.276 234.211 123.267L234.317 131.266C233.631 131.275 232.945 131.284 232.259 131.293L232.155 123.294ZM254.682 122.887C255.362 122.868 256.042 122.849 256.722 122.828L256.961 130.825C256.273 130.845 255.587 130.865 254.901 130.884L254.682 122.887ZM277.09 121.89C277.768 121.845 278.446 121.799 279.125 121.752L279.684 129.732C278.993 129.781 278.303 129.827 277.613 129.872L277.09 121.89ZM299.346 119.807C300.014 119.724 300.682 119.638 301.351 119.55L302.393 127.482C301.708 127.572 301.023 127.66 300.339 127.745L299.346 119.807ZM321.322 116.232C321.982 116.098 322.643 115.961 323.304 115.822L324.957 123.649C324.276 123.793 323.595 123.934 322.916 124.072L321.322 116.232ZM342.89 110.865C343.538 110.673 344.186 110.477 344.835 110.279L347.178 117.928C346.507 118.133 345.837 118.335 345.168 118.534L342.89 110.865ZM363.863 103.551C364.178 103.424 364.494 103.296 364.809 103.168L367.83 110.575C367.504 110.708 367.178 110.841 366.852 110.972L363.863 103.551ZM364.809 103.168C365.12 103.041 365.431 102.913 365.742 102.784L368.806 110.174C368.481 110.309 368.156 110.443 367.83 110.575L364.809 103.168ZM383.892 94.056C384.484 93.7317 385.074 93.4048 385.662 93.0752L389.574 100.053C388.963 100.396 388.35 100.736 387.734 101.073L383.892 94.056ZM402.798 82.3679C403.355 81.9837 403.91 81.5977 404.462 81.2099L409.06 87.7564C408.489 88.1573 407.916 88.5564 407.34 88.9536L402.798 82.3679ZM420.554 68.897C421.075 68.4658 421.592 68.0337 422.106 67.6008L427.257 73.7219C426.728 74.1674 426.195 74.6122 425.66 75.0561L420.554 68.897ZM437.163 53.9877C437.655 53.5111 438.143 53.0349 438.628 52.5592L444.232 58.269C443.734 58.7569 443.233 59.2455 442.728 59.7345L437.163 53.9877ZM452.663 37.8767C453.125 37.363 453.581 36.8519 454.032 36.3435L460.017 41.6516C459.555 42.1722 459.088 42.6956 458.616 43.2217L452.663 37.8767ZM467.06 20.7183C467.482 20.1797 467.894 19.6495 468.297 19.1281L474.627 24.0204C474.214 24.5549 473.791 25.0983 473.359 25.6502L467.06 20.7183ZM480.093 2.68512C480.269 2.41333 480.4 2.20806 480.486 2.07308C480.529 2.00559 480.56 1.95568 480.581 1.92381C480.591 1.90788 480.598 1.89645 480.602 1.8896C480.604 1.88618 480.606 1.88389 480.606 1.88276C480.607 1.8822 480.607 1.88192 480.607 1.88193C480.607 1.88193 480.607 1.88201 480.607 1.88216C480.607 1.88223 480.607 1.88232 480.607 1.88243C480.606 1.88249 480.606 1.88255 480.606 1.88261C480.606 1.88265 480.606 1.8827 480.606 1.88271C480.606 1.88277 480.606 1.88282 484 4.00001C487.394 6.11719 487.394 6.11725 487.394 6.1173C487.394 6.11732 487.394 6.11738 487.394 6.11742C487.394 6.11751 487.394 6.11759 487.393 6.11768C487.393 6.11787 487.393 6.11807 487.393 6.11829C487.393 6.11873 487.392 6.11924 487.392 6.11982C487.391 6.12099 487.39 6.12245 487.389 6.1242C487.387 6.12769 487.384 6.13234 487.381 6.13813C487.373 6.14973 487.363 6.16591 487.35 6.18663C487.324 6.22806 487.286 6.28763 487.237 6.36486C487.139 6.51932 486.995 6.74442 486.806 7.0364L480.093 2.68512Z" fill="#EEEEEE"/>
</svg>
